<svg id="visual" viewBox="0 0 1024 1440" width="1024" height="1440" xmlns="http://www.w3.org/2000/svg" xmlns:xlink="http://www.w3.org/1999/xlink" version="1.1"><path d="M0 593L56.8 567.3C113.7 541.7 227.3 490.3 341.2 477.8C455 465.3 569 491.7 682.8 495.3C796.7 499 910.3 480 967.2 470.5L1024 461L1024 0L967.2 0C910.3 0 796.7 0 682.8 0C569 0 455 0 341.2 0C227.3 0 113.7 0 56.8 0L0 0Z" fill="#ffffff"></path><path d="M0 373L56.8 372.7C113.7 372.3 227.3 371.7 341.2 363C455 354.3 569 337.7 682.8 345C796.7 352.3 910.3 383.7 967.2 399.3L1024 415L1024 0L967.2 0C910.3 0 796.7 0 682.8 0C569 0 455 0 341.2 0C227.3 0 113.7 0 56.8 0L0 0Z" fill="#e1d6ff"></path><path d="M0 365L56.8 340.2C113.7 315.3 227.3 265.7 341.2 257.2C455 248.7 569 281.3 682.8 281.3C796.7 281.3 910.3 248.7 967.2 232.3L1024 216L1024 0L967.2 0C910.3 0 796.7 0 682.8 0C569 0 455 0 341.2 0C227.3 0 113.7 0 56.8 0L0 0Z" fill="#c0afff"></path><path d="M0 215L56.8 216.3C113.7 217.7 227.3 220.3 341.2 224.8C455 229.3 569 235.7 682.8 221.8C796.7 208 910.3 174 967.2 157L1024 140L1024 0L967.2 0C910.3 0 796.7 0 682.8 0C569 0 455 0 341.2 0C227.3 0 113.7 0 56.8 0L0 0Z" fill="#9b88ff"></path><path d="M0 136L56.8 134.7C113.7 133.3 227.3 130.7 341.2 129.8C455 129 569 130 682.8 136.8C796.7 143.7 910.3 156.3 967.2 162.7L1024 169L1024 0L967.2 0C910.3 0 796.7 0 682.8 0C569 0 455 0 341.2 0C227.3 0 113.7 0 56.8 0L0 0Z" fill="#6c63ff"></path></svg>