<svg id="visual" viewBox="0 0 540 960" width="540" height="960" xmlns="http://www.w3.org/2000/svg" xmlns:xlink="http://www.w3.org/1999/xlink" version="1.1"><path d="M0 395L30 377.8C60 360.7 120 326.3 180 318C240 309.7 300 327.3 360 329.8C420 332.3 480 319.7 510 313.3L540 307L540 0L510 0C480 0 420 0 360 0C300 0 240 0 180 0C120 0 60 0 30 0L0 0Z" fill="#ffffff"></path><path d="M0 248L30 247.8C60 247.7 120 247.3 180 241.7C240 236 300 225 360 229.8C420 234.7 480 255.3 510 265.7L540 276L540 0L510 0C480 0 420 0 360 0C300 0 240 0 180 0C120 0 60 0 30 0L0 0Z" fill="#e1d6ff"></path><path d="M0 243L30 226.5C60 210 120 177 180 171.3C240 165.7 300 187.3 360 187.3C420 187.3 480 165.7 510 154.8L540 144L540 0L510 0C480 0 420 0 360 0C300 0 240 0 180 0C120 0 60 0 30 0L0 0Z" fill="#c0afff"></path><path d="M0 143L30 143.8C60 144.7 120 146.3 180 149.3C240 152.3 300 156.7 360 147.5C420 138.3 480 115.7 510 104.3L540 93L540 0L510 0C480 0 420 0 360 0C300 0 240 0 180 0C120 0 60 0 30 0L0 0Z" fill="#9b88ff"></path><path d="M0 90L30 89.2C60 88.3 120 86.7 180 86.2C240 85.7 300 86.3 360 91C420 95.7 480 104.3 510 108.7L540 113L540 0L510 0C480 0 420 0 360 0C300 0 240 0 180 0C120 0 60 0 30 0L0 0Z" fill="#6c63ff"></path></svg>