<svg id="visual" viewBox="0 0 768 1440" width="768" height="1440" xmlns="http://www.w3.org/2000/svg" xmlns:xlink="http://www.w3.org/1999/xlink" version="1.1"><path d="M0 593L42.7 567.3C85.3 541.7 170.7 490.3 256 477.8C341.3 465.3 426.7 491.7 512 495.3C597.3 499 682.7 480 725.3 470.5L768 461L768 0L725.3 0C682.7 0 597.3 0 512 0C426.7 0 341.3 0 256 0C170.7 0 85.3 0 42.7 0L0 0Z" fill="#ffffff"></path><path d="M0 373L42.7 372.7C85.3 372.3 170.7 371.7 256 363C341.3 354.3 426.7 337.7 512 345C597.3 352.3 682.7 383.7 725.3 399.3L768 415L768 0L725.3 0C682.7 0 597.3 0 512 0C426.7 0 341.3 0 256 0C170.7 0 85.3 0 42.7 0L0 0Z" fill="#e1d6ff"></path><path d="M0 365L42.7 340.2C85.3 315.3 170.7 265.7 256 257.2C341.3 248.7 426.7 281.3 512 281.3C597.3 281.3 682.7 248.7 725.3 232.3L768 216L768 0L725.3 0C682.7 0 597.3 0 512 0C426.7 0 341.3 0 256 0C170.7 0 85.3 0 42.7 0L0 0Z" fill="#c0afff"></path><path d="M0 215L42.7 216.3C85.3 217.7 170.7 220.3 256 224.8C341.3 229.3 426.7 235.7 512 221.8C597.3 208 682.7 174 725.3 157L768 140L768 0L725.3 0C682.7 0 597.3 0 512 0C426.7 0 341.3 0 256 0C170.7 0 85.3 0 42.7 0L0 0Z" fill="#9b88ff"></path><path d="M0 136L42.7 134.7C85.3 133.3 170.7 130.7 256 129.8C341.3 129 426.7 130 512 136.8C597.3 143.7 682.7 156.3 725.3 162.7L768 169L768 0L725.3 0C682.7 0 597.3 0 512 0C426.7 0 341.3 0 256 0C170.7 0 85.3 0 42.7 0L0 0Z" fill="#6c63ff"></path></svg>