<svg id="visual" viewBox="0 0 1200 960" width="1200" height="960" xmlns="http://www.w3.org/2000/svg" xmlns:xlink="http://www.w3.org/1999/xlink" version="1.1"><path d="M0 395L66.7 377.8C133.3 360.7 266.7 326.3 400 318C533.3 309.7 666.7 327.3 800 329.8C933.3 332.3 1066.7 319.7 1133.3 313.3L1200 307L1200 0L1133.3 0C1066.7 0 933.3 0 800 0C666.7 0 533.3 0 400 0C266.7 0 133.3 0 66.7 0L0 0Z" fill="#ffffff"></path><path d="M0 248L66.7 247.8C133.3 247.7 266.7 247.3 400 241.7C533.3 236 666.7 225 800 229.8C933.3 234.7 1066.7 255.3 1133.3 265.7L1200 276L1200 0L1133.3 0C1066.7 0 933.3 0 800 0C666.7 0 533.3 0 400 0C266.7 0 133.3 0 66.7 0L0 0Z" fill="#e1d6ff"></path><path d="M0 243L66.7 226.5C133.3 210 266.7 177 400 171.3C533.3 165.7 666.7 187.3 800 187.3C933.3 187.3 1066.7 165.7 1133.3 154.8L1200 144L1200 0L1133.3 0C1066.7 0 933.3 0 800 0C666.7 0 533.3 0 400 0C266.7 0 133.3 0 66.7 0L0 0Z" fill="#c0afff"></path><path d="M0 143L66.7 143.8C133.3 144.7 266.7 146.3 400 149.3C533.3 152.3 666.7 156.7 800 147.5C933.3 138.3 1066.7 115.7 1133.3 104.3L1200 93L1200 0L1133.3 0C1066.7 0 933.3 0 800 0C666.7 0 533.3 0 400 0C266.7 0 133.3 0 66.7 0L0 0Z" fill="#9b88ff"></path><path d="M0 90L66.7 89.2C133.3 88.3 266.7 86.7 400 86.2C533.3 85.7 666.7 86.3 800 91C933.3 95.7 1066.7 104.3 1133.3 108.7L1200 113L1200 0L1133.3 0C1066.7 0 933.3 0 800 0C666.7 0 533.3 0 400 0C266.7 0 133.3 0 66.7 0L0 0Z" fill="#6c63ff"></path></svg>