<svg id="visual" viewBox="0 0 1920 600" width="1920" height="600" xmlns="http://www.w3.org/2000/svg" xmlns:xlink="http://www.w3.org/1999/xlink" version="1.1"><path d="M0 358L45.7 359.5C91.3 361 182.7 364 274.2 376C365.7 388 457.3 409 548.8 422.3C640.3 435.7 731.7 441.3 823 434C914.3 426.7 1005.7 406.3 1097 395.5C1188.3 384.7 1279.7 383.3 1371.2 390.2C1462.7 397 1554.3 412 1645.8 408.8C1737.3 405.7 1828.7 384.3 1874.3 373.7L1920 363L1920 601L1874.3 601C1828.7 601 1737.3 601 1645.8 601C1554.3 601 1462.7 601 1371.2 601C1279.7 601 1188.3 601 1097 601C1005.7 601 914.3 601 823 601C731.7 601 640.3 601 548.8 601C457.3 601 365.7 601 274.2 601C182.7 601 91.3 601 45.7 601L0 601Z" fill="#ffffff"></path><path d="M0 434L45.7 439.8C91.3 445.7 182.7 457.3 274.2 457.5C365.7 457.7 457.3 446.3 548.8 440.2C640.3 434 731.7 433 823 431.7C914.3 430.3 1005.7 428.7 1097 435C1188.3 441.3 1279.7 455.7 1371.2 456.2C1462.7 456.7 1554.3 443.3 1645.8 444.3C1737.3 445.3 1828.7 460.7 1874.3 468.3L1920 476L1920 601L1874.3 601C1828.7 601 1737.3 601 1645.8 601C1554.3 601 1462.7 601 1371.2 601C1279.7 601 1188.3 601 1097 601C1005.7 601 914.3 601 823 601C731.7 601 640.3 601 548.8 601C457.3 601 365.7 601 274.2 601C182.7 601 91.3 601 45.7 601L0 601Z" fill="#e1d6ff"></path><path d="M0 450L45.7 455C91.3 460 182.7 470 274.2 476.2C365.7 482.3 457.3 484.7 548.8 488C640.3 491.3 731.7 495.7 823 498.2C914.3 500.7 1005.7 501.3 1097 492.5C1188.3 483.7 1279.7 465.3 1371.2 463C1462.7 460.7 1554.3 474.3 1645.8 474.2C1737.3 474 1828.7 460 1874.3 453L1920 446L1920 601L1874.3 601C1828.7 601 1737.3 601 1645.8 601C1554.3 601 1462.7 601 1371.2 601C1279.7 601 1188.3 601 1097 601C1005.7 601 914.3 601 823 601C731.7 601 640.3 601 548.8 601C457.3 601 365.7 601 274.2 601C182.7 601 91.3 601 45.7 601L0 601Z" fill="#c0afff"></path><path d="M0 523L45.7 516.8C91.3 510.7 182.7 498.3 274.2 493.2C365.7 488 457.3 490 548.8 489.7C640.3 489.3 731.7 486.7 823 487.3C914.3 488 1005.7 492 1097 494C1188.3 496 1279.7 496 1371.2 503.2C1462.7 510.3 1554.3 524.7 1645.8 530.5C1737.3 536.3 1828.7 533.7 1874.3 532.3L1920 531L1920 601L1874.3 601C1828.7 601 1737.3 601 1645.8 601C1554.3 601 1462.7 601 1371.2 601C1279.7 601 1188.3 601 1097 601C1005.7 601 914.3 601 823 601C731.7 601 640.3 601 548.8 601C457.3 601 365.7 601 274.2 601C182.7 601 91.3 601 45.7 601L0 601Z" fill="#9b88ff"></path><path d="M0 559L45.7 555.5C91.3 552 182.7 545 274.2 540C365.7 535 457.3 532 548.8 536.5C640.3 541 731.7 553 823 559.5C914.3 566 1005.7 567 1097 568.5C1188.3 570 1279.7 572 1371.2 569.7C1462.7 567.3 1554.3 560.7 1645.8 557.5C1737.3 554.3 1828.7 554.7 1874.3 554.8L1920 555L1920 601L1874.3 601C1828.7 601 1737.3 601 1645.8 601C1554.3 601 1462.7 601 1371.2 601C1279.7 601 1188.3 601 1097 601C1005.7 601 914.3 601 823 601C731.7 601 640.3 601 548.8 601C457.3 601 365.7 601 274.2 601C182.7 601 91.3 601 45.7 601L0 601Z" fill="#6c63ff"></path></svg>