<svg id="visual" viewBox="0 0 960 540" width="960" height="540" xmlns="http://www.w3.org/2000/svg" xmlns:xlink="http://www.w3.org/1999/xlink" version="1.1"><path d="M0 423L12.3 420.5C24.7 418 49.3 413 74 406.7C98.7 400.3 123.3 392.7 148 394.2C172.7 395.7 197.3 406.3 221.8 399.7C246.3 393 270.7 369 295.2 361.7C319.7 354.3 344.3 363.7 369 376.8C393.7 390 418.3 407 443 414.2C467.7 421.3 492.3 418.7 517 419.3C541.7 420 566.3 424 591 416.3C615.7 408.7 640.3 389.3 664.8 374.7C689.3 360 713.7 350 738.2 344.2C762.7 338.3 787.3 336.7 812 335.8C836.7 335 861.3 335 886 334.7C910.7 334.3 935.3 333.7 947.7 333.3L960 333L960 541L947.7 541C935.3 541 910.7 541 886 541C861.3 541 836.7 541 812 541C787.3 541 762.7 541 738.2 541C713.7 541 689.3 541 664.8 541C640.3 541 615.7 541 591 541C566.3 541 541.7 541 517 541C492.3 541 467.7 541 443 541C418.3 541 393.7 541 369 541C344.3 541 319.7 541 295.2 541C270.7 541 246.3 541 221.8 541C197.3 541 172.7 541 148 541C123.3 541 98.7 541 74 541C49.3 541 24.7 541 12.3 541L0 541Z" fill="#ffffff"></path><path d="M0 409L12.3 409.7C24.7 410.3 49.3 411.7 74 421.3C98.7 431 123.3 449 148 461C172.7 473 197.3 479 221.8 478C246.3 477 270.7 469 295.2 468C319.7 467 344.3 473 369 468C393.7 463 418.3 447 443 438.7C467.7 430.3 492.3 429.7 517 438.8C541.7 448 566.3 467 591 472C615.7 477 640.3 468 664.8 463.7C689.3 459.3 713.7 459.7 738.2 456.3C762.7 453 787.3 446 812 448C836.7 450 861.3 461 886 455.7C910.7 450.3 935.3 428.7 947.7 417.8L960 407L960 541L947.7 541C935.3 541 910.7 541 886 541C861.3 541 836.7 541 812 541C787.3 541 762.7 541 738.2 541C713.7 541 689.3 541 664.8 541C640.3 541 615.7 541 591 541C566.3 541 541.7 541 517 541C492.3 541 467.7 541 443 541C418.3 541 393.7 541 369 541C344.3 541 319.7 541 295.2 541C270.7 541 246.3 541 221.8 541C197.3 541 172.7 541 148 541C123.3 541 98.7 541 74 541C49.3 541 24.7 541 12.3 541L0 541Z" fill="#6600ff"></path></svg>