<svg id="visual" viewBox="0 0 1920 600" width="1920" height="600" xmlns="http://www.w3.org/2000/svg" xmlns:xlink="http://www.w3.org/1999/xlink" version="1.1"><path d="M0 240L45.7 238.5C91.3 237 182.7 234 274.2 222C365.7 210 457.3 189 548.8 175.7C640.3 162.3 731.7 156.7 823 164C914.3 171.3 1005.7 191.7 1097 202.5C1188.3 213.3 1279.7 214.7 1371.2 207.8C1462.7 201 1554.3 186 1645.8 189.2C1737.3 192.3 1828.7 213.7 1874.3 224.3L1920 235L1920 0L1874.3 0C1828.7 0 1737.3 0 1645.8 0C1554.3 0 1462.7 0 1371.2 0C1279.7 0 1188.3 0 1097 0C1005.7 0 914.3 0 823 0C731.7 0 640.3 0 548.8 0C457.3 0 365.7 0 274.2 0C182.7 0 91.3 0 45.7 0L0 0Z" fill="#ffffff"></path><path d="M0 164L45.7 158.2C91.3 152.3 182.7 140.7 274.2 140.5C365.7 140.3 457.3 151.7 548.8 157.8C640.3 164 731.7 165 823 166.3C914.3 167.7 1005.7 169.3 1097 163C1188.3 156.7 1279.7 142.3 1371.2 141.8C1462.7 141.3 1554.3 154.7 1645.8 153.7C1737.3 152.7 1828.7 137.3 1874.3 129.7L1920 122L1920 0L1874.3 0C1828.7 0 1737.3 0 1645.8 0C1554.3 0 1462.7 0 1371.2 0C1279.7 0 1188.3 0 1097 0C1005.7 0 914.3 0 823 0C731.7 0 640.3 0 548.8 0C457.3 0 365.7 0 274.2 0C182.7 0 91.3 0 45.7 0L0 0Z" fill="#e1d6ff"></path><path d="M0 148L45.7 143C91.3 138 182.7 128 274.2 121.8C365.7 115.7 457.3 113.3 548.8 110C640.3 106.7 731.7 102.3 823 99.8C914.3 97.3 1005.7 96.7 1097 105.5C1188.3 114.3 1279.7 132.7 1371.2 135C1462.7 137.3 1554.3 123.7 1645.8 123.8C1737.3 124 1828.7 138 1874.3 145L1920 152L1920 0L1874.3 0C1828.7 0 1737.3 0 1645.8 0C1554.3 0 1462.7 0 1371.2 0C1279.7 0 1188.3 0 1097 0C1005.7 0 914.3 0 823 0C731.7 0 640.3 0 548.8 0C457.3 0 365.7 0 274.2 0C182.7 0 91.3 0 45.7 0L0 0Z" fill="#c0afff"></path><path d="M0 75L45.7 81.2C91.3 87.3 182.7 99.7 274.2 104.8C365.7 110 457.3 108 548.8 108.3C640.3 108.7 731.7 111.3 823 110.7C914.3 110 1005.7 106 1097 104C1188.3 102 1279.7 102 1371.2 94.8C1462.7 87.7 1554.3 73.3 1645.8 67.5C1737.3 61.7 1828.7 64.3 1874.3 65.7L1920 67L1920 0L1874.3 0C1828.7 0 1737.3 0 1645.8 0C1554.3 0 1462.7 0 1371.2 0C1279.7 0 1188.3 0 1097 0C1005.7 0 914.3 0 823 0C731.7 0 640.3 0 548.8 0C457.3 0 365.7 0 274.2 0C182.7 0 91.3 0 45.7 0L0 0Z" fill="#9b88ff"></path><path d="M0 39L45.7 42.5C91.3 46 182.7 53 274.2 58C365.7 63 457.3 66 548.8 61.5C640.3 57 731.7 45 823 38.5C914.3 32 1005.7 31 1097 29.5C1188.3 28 1279.7 26 1371.2 28.3C1462.7 30.7 1554.3 37.3 1645.8 40.5C1737.3 43.7 1828.7 43.3 1874.3 43.2L1920 43L1920 0L1874.3 0C1828.7 0 1737.3 0 1645.8 0C1554.3 0 1462.7 0 1371.2 0C1279.7 0 1188.3 0 1097 0C1005.7 0 914.3 0 823 0C731.7 0 640.3 0 548.8 0C457.3 0 365.7 0 274.2 0C182.7 0 91.3 0 45.7 0L0 0Z" fill="#6c63ff"></path></svg>